<?xml version="1.0" encoding="utf-8"?>
<!-- Generator: Adobe Illustrator 14.0.0, SVG Export Plug-In . SVG Version: 6.00 Build 43363)  -->
<!DOCTYPE svg PUBLIC "-//W3C//DTD SVG 1.1//EN" "http://www.w3.org/Graphics/SVG/1.1/DTD/svg11.dtd">
<svg version="1.1" id="Layer_1" xmlns="http://www.w3.org/2000/svg" xmlns:xlink="http://www.w3.org/1999/xlink" x="0px" y="0px"
	 width="117.119px" height="18.371px" style="fill:#1F2967" viewBox="0 0 117.119 18.371" enable-background="new 0 0 117.119 18.371"
	 xml:space="preserve">
<g>
	<path d="M20.052,8.732v0.02l1.425,3.827l1.035,2.812c0.065,0.313-0.033,0.579-0.293,0.801
		c-0.182,0.143-0.41,0.201-0.683,0.176c-0.273-0.053-0.476-0.215-0.605-0.488l-2.011-5.447c-0.26-0.664-0.514-1.331-0.761-2.002
		c-0.248-0.67-0.501-1.344-0.762-2.021c-0.013-0.078-0.052-0.13-0.117-0.156c-0.065-0.013-0.124,0.006-0.176,0.059l-0.293,0.761
		l-1.406,3.886l-1.055,2.947c-0.143,0.339-0.267,0.678-0.371,1.016c-0.104,0.338-0.228,0.684-0.371,1.035
		c-0.065,0.104-0.153,0.191-0.264,0.264c-0.111,0.071-0.225,0.12-0.342,0.146c-0.299,0.025-0.546-0.059-0.742-0.254
		c-0.13-0.144-0.218-0.307-0.264-0.488c-0.046-0.183-0.107-0.365-0.186-0.547c-0.065-0.221-0.144-0.43-0.234-0.625
		c-0.091-0.195-0.169-0.396-0.234-0.605L9.196,8.049L8.552,6.351C8.526,6.312,8.497,6.289,8.464,6.282S8.402,6.266,8.376,6.253
		C8.298,6.266,8.256,6.302,8.249,6.36C8.243,6.419,8.227,6.474,8.201,6.526l-1.66,4.569l-1.757,4.842
		c-0.144,0.273-0.352,0.416-0.625,0.43c-0.403,0.025-0.683-0.117-0.839-0.43c-0.052-0.104-0.085-0.219-0.098-0.342
		c-0.013-0.124,0.006-0.238,0.059-0.342l0.352-0.938l3.202-8.903l0.781-2.187C7.68,3.083,7.768,2.973,7.878,2.895
		c0.11-0.078,0.237-0.13,0.38-0.156c0.182-0.026,0.352,0,0.508,0.078S9.04,3.012,9.118,3.168l2.616,6.99l0.996,2.654
		c0.065,0.066,0.124,0.092,0.175,0.078c0.065,0,0.104-0.025,0.117-0.078l1.445-4.041l2.011-5.564
		c0.052-0.143,0.143-0.254,0.273-0.332c0.13-0.078,0.267-0.13,0.41-0.156c0.182-0.013,0.348,0.026,0.498,0.117
		c0.149,0.091,0.257,0.215,0.322,0.371L20.052,8.732z"/>
	<path d="M33.934,2.719c0.143,0.026,0.273,0.068,0.391,0.127s0.215,0.146,0.293,0.264
		c0.065,0.104,0.11,0.221,0.137,0.352c0.026,0.13,0.013,0.26-0.039,0.39c-0.052,0.144-0.137,0.267-0.254,0.371
		c-0.117,0.104-0.254,0.169-0.41,0.195l-5.271-0.02c-0.144-0.013-0.29-0.013-0.439,0c-0.15,0.013-0.296,0.013-0.439,0
		c-0.143-0.013-0.276-0.049-0.4-0.107c-0.124-0.059-0.224-0.159-0.302-0.303c-0.065-0.104-0.101-0.225-0.107-0.361
		c-0.007-0.136,0.01-0.263,0.049-0.38c0.065-0.143,0.159-0.264,0.283-0.361c0.124-0.098,0.263-0.153,0.419-0.166l4.647,0.02
		L33.934,2.719z M33.993,8.732c0.286,0.026,0.501,0.156,0.645,0.391c0.078,0.104,0.124,0.225,0.137,0.361
		c0.013,0.137,0,0.264-0.039,0.381s-0.111,0.228-0.215,0.332c-0.104,0.104-0.222,0.169-0.352,0.195l-0.293,0.02l-6.092-0.02
		c-0.156-0.026-0.296-0.098-0.419-0.215c-0.124-0.117-0.205-0.254-0.244-0.41s-0.036-0.313,0.01-0.469
		c0.045-0.156,0.133-0.286,0.264-0.391c0.13-0.104,0.292-0.169,0.488-0.195L33.993,8.732z M34.618,15.02
		c0.104,0.131,0.163,0.279,0.176,0.449c0.013,0.169-0.013,0.325-0.078,0.469c-0.078,0.169-0.199,0.293-0.361,0.371
		c-0.163,0.078-0.335,0.109-0.518,0.098l-5.975-0.02c-0.143-0.026-0.27-0.078-0.38-0.156c-0.111-0.078-0.199-0.176-0.264-0.293
		c-0.065-0.144-0.091-0.303-0.078-0.479c0.013-0.176,0.078-0.322,0.195-0.439c0.169-0.208,0.377-0.306,0.625-0.293l5.584-0.02
		c0.208-0.013,0.407-0.006,0.596,0.02C34.328,14.753,34.487,14.851,34.618,15.02z"/>
	<path d="M45.2,3.129c0.625,0.234,1.201,0.546,1.728,0.937c0.527,0.391,0.996,0.846,1.406,1.367
		c0.41,0.521,0.726,1.087,0.947,1.699c0.247,0.612,0.394,1.24,0.439,1.884c0.045,0.645,0.006,1.282-0.117,1.914
		c-0.124,0.631-0.335,1.236-0.635,1.814c-0.299,0.58-0.67,1.098-1.113,1.553c-0.677,0.703-1.432,1.224-2.265,1.563
		c-0.833,0.338-1.731,0.514-2.695,0.527h-2.167c-0.273-0.039-0.495-0.183-0.664-0.43c-0.065-0.156-0.098-0.3-0.098-0.43
		l-0.02-11.872c-0.013-0.182,0.023-0.348,0.107-0.498c0.084-0.149,0.205-0.264,0.361-0.342c0.052-0.026,0.107-0.045,0.166-0.059
		c0.059-0.013,0.12-0.026,0.186-0.039l2.519,0.02C43.938,2.765,44.575,2.895,45.2,3.129z M44.175,4.525
		c-0.306-0.071-0.622-0.12-0.947-0.146c-0.26,0-0.514-0.003-0.761-0.01c-0.248-0.006-0.501-0.003-0.762,0.01
		c-0.026,0.013-0.065,0.059-0.117,0.137v3.573l0.02,6.404c0,0.131,0.033,0.209,0.098,0.234c0.495,0.014,0.989,0.017,1.484,0.01
		c0.495-0.006,0.97-0.094,1.425-0.264c0.481-0.143,0.928-0.367,1.337-0.674c0.41-0.305,0.771-0.664,1.084-1.074
		c0.313-0.409,0.56-0.858,0.742-1.347c0.182-0.487,0.286-0.979,0.313-1.474c0.026-0.533-0.026-1.058-0.156-1.572
		c-0.13-0.514-0.326-0.992-0.585-1.435c-0.261-0.442-0.586-0.839-0.977-1.191s-0.827-0.638-1.308-0.859
		C44.777,4.704,44.481,4.597,44.175,4.525z"/>
	<path class="accent" style="fill:#EA5173" d="M65.301,4.867c0.071,0.182,0.14,0.364,0.204,0.546l2.012,5.429l0.742,1.932
		c0.039,0.053,0.098,0.078,0.176,0.078c0.064-0.012,0.101-0.045,0.107-0.098c0.006-0.051,0.022-0.098,0.049-0.137l2.44-6.794
		l0.976-2.655c0.092-0.156,0.219-0.276,0.381-0.361c0.163-0.084,0.336-0.107,0.518-0.068c0.144,0.026,0.279,0.101,0.41,0.225
		c0.13,0.124,0.208,0.257,0.234,0.4c0.039,0.273,0,0.517-0.117,0.732s-0.201,0.446-0.254,0.693l-4.021,11.129
		c-0.145,0.26-0.352,0.41-0.625,0.449c-0.183,0.013-0.352-0.017-0.508-0.088c-0.156-0.072-0.273-0.186-0.352-0.342l-2.714-7.264
		l-0.898-2.401c-0.065-0.065-0.137-0.084-0.214-0.059l-0.078,0.078l-1.035,2.909l-1.054,2.929l-1.308,3.651
		c-0.078,0.313-0.28,0.501-0.605,0.566c-0.234,0.064-0.462,0.025-0.683-0.117c-0.104-0.078-0.186-0.173-0.244-0.283
		c-0.059-0.111-0.107-0.225-0.146-0.342l-1.074-2.93l-1.542-4.1l-1.796-4.862c-0.052-0.351,0.078-0.644,0.391-0.878
		c0.117-0.078,0.253-0.117,0.41-0.117c0.143,0,0.28,0.033,0.41,0.098c0.156,0.091,0.28,0.234,0.371,0.43l0.585,1.562l2.285,6.151
		l0.683,1.795c0.052,0.092,0.111,0.125,0.176,0.098c0.065-0.012,0.11-0.051,0.137-0.117l1.542-4.256l1.171-3.28
		c0.117-0.299,0.231-0.605,0.342-0.917c0.11-0.313,0.225-0.625,0.342-0.937c0.026-0.143,0.104-0.276,0.234-0.4
		c0.13-0.124,0.273-0.192,0.43-0.205c0.182-0.026,0.351,0,0.507,0.078s0.28,0.195,0.371,0.352l0.41,1.171
		C65.154,4.509,65.229,4.685,65.301,4.867z"/>
	<path d="M84.19,3.812l2.539,6.834l1.015,2.693l0.684,1.836c0.065,0.143,0.088,0.303,0.068,0.479
		s-0.081,0.322-0.186,0.439c-0.222,0.247-0.488,0.338-0.8,0.273c-0.145-0.026-0.277-0.092-0.4-0.195
		c-0.125-0.104-0.213-0.229-0.264-0.371l-0.723-1.895l-0.313-0.82c-0.053-0.078-0.117-0.109-0.195-0.098h-4.842
		c-0.066,0-0.117,0.033-0.156,0.098l-0.859,2.305c-0.065,0.169-0.134,0.342-0.205,0.518c-0.072,0.176-0.205,0.296-0.4,0.361
		c-0.248,0.117-0.502,0.11-0.762-0.02c-0.338-0.209-0.475-0.515-0.41-0.918l0.156-0.488l3.339-9.04l0.977-2.655
		c0.078-0.13,0.176-0.228,0.293-0.293c0.117-0.065,0.247-0.11,0.39-0.137c0.183,0,0.352,0.046,0.508,0.137
		c0.156,0.091,0.268,0.222,0.332,0.391L84.19,3.812z M83.214,6.38c-0.064-0.007-0.117,0.016-0.156,0.068l-0.585,1.621l-0.898,2.382
		l-0.214,0.625v0.116c0.039,0.065,0.084,0.098,0.136,0.098l1.27,0.02h2.226c0.064-0.039,0.098-0.091,0.098-0.156l-0.801-2.206
		l-0.938-2.46C83.325,6.422,83.279,6.386,83.214,6.38z"/>
	<path d="M98.854,2.992c0.324,0.13,0.627,0.299,0.907,0.508c0.28,0.208,0.527,0.452,0.742,0.732
		c0.215,0.28,0.388,0.583,0.518,0.908c0.144,0.352,0.23,0.716,0.263,1.094c0.033,0.377,0.01,0.749-0.068,1.113
		c-0.078,0.365-0.204,0.713-0.38,1.044c-0.176,0.332-0.4,0.635-0.674,0.908c-0.378,0.364-0.79,0.631-1.239,0.801
		c-0.449,0.169-0.922,0.26-1.416,0.273c-0.053,0.013-0.092,0.059-0.117,0.137v0.078l3.826,4.529
		c0.065,0.143,0.095,0.303,0.088,0.479c-0.006,0.176-0.062,0.322-0.166,0.439c-0.233,0.299-0.533,0.41-0.897,0.332
		c-0.156-0.039-0.306-0.131-0.449-0.273c-0.183-0.209-0.358-0.417-0.526-0.625c-0.17-0.209-0.346-0.416-0.527-0.625l-3.105-3.671
		c-0.064-0.052-0.123-0.052-0.176,0l-0.059,0.078v4.394c-0.025,0.13-0.078,0.25-0.156,0.361c-0.078,0.11-0.182,0.198-0.312,0.264
		c-0.104,0.052-0.228,0.081-0.371,0.088c-0.144,0.006-0.267-0.017-0.371-0.068c-0.156-0.065-0.28-0.173-0.371-0.322
		c-0.091-0.15-0.144-0.303-0.156-0.459l-0.02-11.872c0-0.169,0.039-0.328,0.117-0.478c0.078-0.149,0.195-0.264,0.352-0.342
		c0.065-0.026,0.13-0.045,0.195-0.059c0.065-0.013,0.13-0.026,0.195-0.039l3.358,0.039C98.196,2.784,98.528,2.862,98.854,2.992z
		 M96.696,4.427c-0.357,0.007-0.719,0.01-1.084,0.01c-0.104,0-0.169,0.026-0.195,0.078l-0.02,4.022
		c0.014,0.052,0.046,0.091,0.098,0.117l2.031,0.02c0.338-0.026,0.654-0.104,0.947-0.234c0.293-0.13,0.543-0.345,0.752-0.644
		c0.221-0.299,0.344-0.651,0.37-1.055c0.026-0.403-0.046-0.768-0.214-1.093c-0.145-0.313-0.361-0.579-0.654-0.8
		s-0.609-0.352-0.947-0.391C97.415,4.431,97.054,4.421,96.696,4.427z"/>
	<path d="M112.736,2.719c0.143,0.026,0.273,0.068,0.39,0.127c0.117,0.059,0.215,0.146,0.293,0.264
		c0.065,0.104,0.11,0.221,0.137,0.352c0.026,0.13,0.013,0.26-0.039,0.39c-0.052,0.144-0.137,0.267-0.254,0.371
		c-0.117,0.104-0.253,0.169-0.409,0.195l-5.272-0.02c-0.144-0.013-0.289-0.013-0.439,0c-0.149,0.013-0.296,0.013-0.439,0
		c-0.143-0.013-0.275-0.049-0.4-0.107c-0.123-0.059-0.224-0.159-0.302-0.303c-0.065-0.104-0.101-0.225-0.107-0.361
		c-0.007-0.136,0.01-0.263,0.049-0.38c0.065-0.143,0.159-0.264,0.283-0.361s0.263-0.153,0.419-0.166l4.647,0.02L112.736,2.719z
		 M112.795,8.732c0.286,0.026,0.501,0.156,0.644,0.391c0.078,0.104,0.124,0.225,0.137,0.361s0,0.264-0.039,0.381
		s-0.11,0.228-0.215,0.332c-0.104,0.104-0.221,0.169-0.351,0.195l-0.293,0.02l-6.093-0.02c-0.156-0.026-0.295-0.098-0.419-0.215
		s-0.205-0.254-0.244-0.41s-0.036-0.313,0.01-0.469s0.134-0.286,0.264-0.391c0.13-0.104,0.292-0.169,0.487-0.195L112.795,8.732z
		 M113.419,15.02c0.104,0.131,0.163,0.279,0.176,0.449c0.013,0.169-0.013,0.325-0.078,0.469c-0.078,0.169-0.198,0.293-0.361,0.371
		c-0.162,0.078-0.335,0.109-0.517,0.098l-5.976-0.02c-0.143-0.026-0.27-0.078-0.38-0.156s-0.198-0.176-0.264-0.293
		c-0.065-0.144-0.091-0.303-0.078-0.479s0.078-0.322,0.195-0.439c0.169-0.208,0.377-0.306,0.624-0.293l5.585-0.02
		c0.208-0.013,0.406-0.006,0.596,0.02C113.13,14.753,113.289,14.851,113.419,15.02z"/>
</g>
</svg>
